<svg width="65" height="67" viewBox="0 0 65 67" fill="none" xmlns="http://www.w3.org/2000/svg">
<rect x="0.899475" width="64" height="66.9375" rx="32" fill="white"/>
<path d="M23.496 23.76V40.5C23.496 43.14 23.172 45.3 22.524 46.98C21.9 48.66 21.144 49.968 20.256 50.904C19.344 51.84 18.396 52.488 17.412 52.848C16.452 53.232 15.624 53.424 14.928 53.424C14.088 53.424 13.416 53.232 12.912 52.848C12.384 52.488 12.12 51.924 12.12 51.156C12.12 50.484 12.324 49.968 12.732 49.608C13.116 49.272 13.644 49.104 14.316 49.104C14.748 49.104 15.12 49.188 15.432 49.356C15.744 49.548 16.008 49.824 16.224 50.184C16.344 50.448 16.464 50.616 16.584 50.688C16.728 50.76 16.908 50.796 17.124 50.796C17.46 50.796 17.784 50.616 18.096 50.256C18.432 49.92 18.732 49.32 18.996 48.456C19.236 47.592 19.428 46.428 19.572 44.964C19.74 43.476 19.824 41.592 19.824 39.312V23.76C19.824 23.256 19.752 22.884 19.608 22.644C19.488 22.404 19.344 22.248 19.176 22.176C18.912 22.104 18.612 22.032 18.276 21.96C17.964 21.888 17.664 21.84 17.376 21.816C17.088 21.816 16.872 21.78 16.728 21.708C16.608 21.612 16.548 21.396 16.548 21.06C16.548 20.892 16.56 20.772 16.584 20.7C16.632 20.604 16.692 20.544 16.764 20.52C16.836 20.472 16.932 20.448 17.052 20.448C17.172 20.448 17.316 20.448 17.484 20.448C17.532 20.448 17.736 20.46 18.096 20.484C18.456 20.484 18.864 20.484 19.32 20.484C19.776 20.508 20.22 20.52 20.652 20.52C21.084 20.52 21.42 20.52 21.66 20.52C21.876 20.52 22.2 20.52 22.632 20.52C23.064 20.52 23.508 20.508 23.964 20.484C24.42 20.484 24.828 20.484 25.188 20.484C25.548 20.46 25.764 20.448 25.836 20.448C25.98 20.448 26.112 20.448 26.232 20.448C26.352 20.448 26.448 20.472 26.52 20.52C26.592 20.544 26.652 20.604 26.7 20.7C26.748 20.772 26.772 20.892 26.772 21.06C26.772 21.396 26.7 21.612 26.556 21.708C26.436 21.78 26.232 21.816 25.944 21.816C25.656 21.84 25.344 21.888 25.008 21.96C24.672 22.032 24.384 22.104 24.144 22.176C23.952 22.248 23.796 22.404 23.676 22.644C23.556 22.884 23.496 23.256 23.496 23.76ZM46.0463 26.856C45.8063 26.928 45.6023 26.952 45.4343 26.928C45.2903 26.88 45.1823 26.712 45.1103 26.424C44.9663 26.04 44.7983 25.632 44.6063 25.2C44.4383 24.768 44.2463 24.36 44.0303 23.976C43.8143 23.568 43.5143 23.244 43.1303 23.004C42.7703 22.764 42.2903 22.644 41.6903 22.644H38.5583C38.2703 22.644 37.9703 22.656 37.6583 22.68C37.3703 22.68 37.0943 22.716 36.8303 22.788C36.6143 22.86 36.4583 23.028 36.3623 23.292C36.2903 23.532 36.2543 23.88 36.2543 24.336V31.608C36.2543 31.776 36.2783 31.884 36.3263 31.932C36.3983 31.98 36.5183 32.004 36.6863 32.004H40.7903C41.5103 32.004 41.9543 31.944 42.1223 31.824C42.3143 31.68 42.4823 31.452 42.6263 31.14C42.6983 30.924 42.7823 30.636 42.8783 30.276C42.9743 29.916 43.0823 29.448 43.2023 28.872C43.2263 28.656 43.2863 28.524 43.3823 28.476C43.5023 28.404 43.6943 28.38 43.9583 28.404C44.2223 28.452 44.3783 28.524 44.4263 28.62C44.4983 28.716 44.5343 28.872 44.5343 29.088C44.4623 29.808 44.4143 30.564 44.3903 31.356C44.3663 32.124 44.3543 32.724 44.3543 33.156C44.3543 33.492 44.3663 34.092 44.3903 34.956C44.4143 35.796 44.4623 36.576 44.5343 37.296C44.5343 37.512 44.4983 37.68 44.4263 37.8C44.3783 37.896 44.2223 37.956 43.9583 37.98C43.6943 38.028 43.5023 38.016 43.3823 37.944C43.2863 37.848 43.2263 37.68 43.2023 37.44C43.1063 36.936 42.9983 36.456 42.8783 36C42.7823 35.52 42.6623 35.1 42.5183 34.74C42.4223 34.452 42.2783 34.248 42.0863 34.128C41.8943 33.984 41.4383 33.912 40.7183 33.912H36.6863C36.5183 33.912 36.3983 33.936 36.3263 33.984C36.2783 34.032 36.2543 34.128 36.2543 34.272V43.344C36.2543 43.824 36.2903 44.184 36.3623 44.424C36.4343 44.664 36.5783 44.808 36.7943 44.856C37.0583 44.928 37.3463 44.976 37.6583 45C37.9703 45 38.2703 45 38.5583 45H43.2023C43.8023 45 44.2943 44.88 44.6783 44.64C45.0623 44.4 45.3743 44.064 45.6143 43.632C45.8783 43.128 46.1303 42.576 46.3703 41.976C46.6103 41.376 46.8383 40.788 47.0543 40.212C47.1503 39.948 47.2463 39.804 47.3423 39.78C47.4623 39.732 47.6423 39.732 47.8823 39.78C48.0263 39.828 48.1223 39.876 48.1703 39.924C48.2423 39.972 48.2903 40.032 48.3143 40.104C48.3383 40.176 48.3383 40.26 48.3143 40.356C48.3143 40.428 48.3143 40.512 48.3143 40.608C48.1703 41.592 47.9903 42.624 47.7743 43.704C47.5583 44.76 47.3303 45.756 47.0903 46.692C47.0183 46.884 46.9463 46.992 46.8743 47.016C46.8023 47.064 46.6943 47.088 46.5503 47.088C46.3343 47.088 45.8663 47.088 45.1463 47.088C44.4503 47.088 43.6823 47.076 42.8423 47.052C41.9783 47.028 41.1383 47.004 40.3223 46.98C39.5063 46.98 38.8703 46.98 38.4143 46.98C37.8863 46.98 37.1663 46.98 36.2543 46.98C35.3663 47.004 34.4903 47.028 33.6263 47.052C32.7383 47.076 31.9463 47.088 31.2503 47.088C30.5543 47.088 30.1583 47.088 30.0623 47.088C29.9183 47.088 29.7863 47.088 29.6663 47.088C29.5463 47.088 29.4383 47.076 29.3423 47.052C29.2463 47.004 29.1743 46.932 29.1263 46.836C29.0783 46.764 29.0543 46.632 29.0543 46.44C29.0543 46.296 29.0663 46.176 29.0903 46.08C29.1383 45.984 29.1983 45.912 29.2703 45.864C29.3423 45.84 29.4263 45.816 29.5223 45.792C29.6423 45.768 29.7863 45.744 29.9543 45.72C30.3143 45.696 30.6503 45.648 30.9623 45.576C31.2743 45.504 31.5863 45.396 31.8983 45.252C32.1383 45.156 32.3063 44.976 32.4023 44.712C32.5223 44.424 32.5823 44.1 32.5823 43.74V23.832C32.5823 23.424 32.5223 23.088 32.4023 22.824C32.3063 22.56 32.1383 22.38 31.8983 22.284C31.7303 22.236 31.5623 22.2 31.3943 22.176C31.2263 22.128 31.0583 22.092 30.8903 22.068C30.6983 22.044 30.5063 22.02 30.3143 21.996C30.1463 21.972 29.9783 21.948 29.8103 21.924C29.4983 21.924 29.2703 21.888 29.1263 21.816C29.0063 21.744 28.9463 21.528 28.9463 21.168C28.9463 21 28.9703 20.88 29.0183 20.808C29.0663 20.712 29.1263 20.652 29.1983 20.628C29.2943 20.58 29.4023 20.556 29.5223 20.556C29.6423 20.556 29.7743 20.556 29.9183 20.556C30.0143 20.556 30.3983 20.568 31.0703 20.592C31.7663 20.592 32.5463 20.604 33.4103 20.628C34.2743 20.652 35.1263 20.664 35.9663 20.664C36.8303 20.664 37.5143 20.664 38.0183 20.664C38.4743 20.664 39.0863 20.664 39.8543 20.664C40.6223 20.664 41.3783 20.652 42.1223 20.628C42.8663 20.604 43.5143 20.592 44.0663 20.592C44.6183 20.568 44.9183 20.556 44.9663 20.556C45.1343 20.556 45.2663 20.58 45.3623 20.628C45.4823 20.676 45.5663 20.808 45.6143 21.024C45.7583 21.912 45.9023 22.764 46.0463 23.58C46.1903 24.396 46.3343 25.224 46.4783 26.064C46.5023 26.28 46.4903 26.46 46.4423 26.604C46.3943 26.724 46.2623 26.808 46.0463 26.856Z" fill="black"/>
</svg>
