<svg width="49" height="51" viewBox="0 0 49 51" fill="none" xmlns="http://www.w3.org/2000/svg">
<rect x="0.899475" width="48" height="50.2031" rx="24" fill="white"/>
<path d="M19.7917 18.0275V29.1875C19.7917 30.9475 19.5757 32.3875 19.1437 33.5075C18.7277 34.6275 18.2237 35.4995 17.6317 36.1235C17.0237 36.7475 16.3917 37.1795 15.7357 37.4195C15.0957 37.6755 14.5437 37.8035 14.0797 37.8035C13.5197 37.8035 13.0717 37.6755 12.7357 37.4195C12.3837 37.1795 12.2077 36.8035 12.2077 36.2915C12.2077 35.8435 12.3437 35.4995 12.6157 35.2595C12.8717 35.0355 13.2237 34.9235 13.6717 34.9235C13.9597 34.9235 14.2077 34.9795 14.4157 35.0915C14.6237 35.2195 14.7997 35.4035 14.9437 35.6435C15.0237 35.8195 15.1037 35.9315 15.1837 35.9795C15.2797 36.0275 15.3997 36.0515 15.5437 36.0515C15.7677 36.0515 15.9837 35.9315 16.1917 35.6915C16.4157 35.4675 16.6157 35.0675 16.7917 34.4915C16.9517 33.9155 17.0797 33.1395 17.1757 32.1635C17.2877 31.1715 17.3437 29.9155 17.3437 28.3955V18.0275C17.3437 17.6915 17.2957 17.4435 17.1997 17.2835C17.1197 17.1235 17.0237 17.0195 16.9117 16.9715C16.7357 16.9235 16.5357 16.8755 16.3117 16.8275C16.1037 16.7795 15.9037 16.7475 15.7117 16.7315C15.5197 16.7315 15.3757 16.7075 15.2797 16.6595C15.1997 16.5955 15.1597 16.4515 15.1597 16.2275C15.1597 16.1155 15.1677 16.0355 15.1837 15.9875C15.2157 15.9235 15.2557 15.8835 15.3037 15.8675C15.3517 15.8355 15.4157 15.8195 15.4957 15.8195C15.5757 15.8195 15.6717 15.8195 15.7837 15.8195C15.8157 15.8195 15.9517 15.8275 16.1917 15.8435C16.4317 15.8435 16.7037 15.8435 17.0077 15.8435C17.3117 15.8595 17.6077 15.8675 17.8957 15.8675C18.1837 15.8675 18.4077 15.8675 18.5677 15.8675C18.7117 15.8675 18.9277 15.8675 19.2157 15.8675C19.5037 15.8675 19.7997 15.8595 20.1037 15.8435C20.4077 15.8435 20.6797 15.8435 20.9197 15.8435C21.1597 15.8275 21.3037 15.8195 21.3517 15.8195C21.4477 15.8195 21.5357 15.8195 21.6157 15.8195C21.6957 15.8195 21.7597 15.8355 21.8077 15.8675C21.8557 15.8835 21.8957 15.9235 21.9277 15.9875C21.9597 16.0355 21.9757 16.1155 21.9757 16.2275C21.9757 16.4515 21.9277 16.5955 21.8317 16.6595C21.7517 16.7075 21.6157 16.7315 21.4237 16.7315C21.2317 16.7475 21.0237 16.7795 20.7997 16.8275C20.5757 16.8755 20.3837 16.9235 20.2237 16.9715C20.0957 17.0195 19.9917 17.1235 19.9117 17.2835C19.8317 17.4435 19.7917 17.6915 19.7917 18.0275ZM34.8252 20.0915C34.6652 20.1395 34.5292 20.1555 34.4172 20.1395C34.3212 20.1075 34.2492 19.9955 34.2012 19.8035C34.1052 19.5475 33.9932 19.2755 33.8652 18.9875C33.7532 18.6995 33.6252 18.4275 33.4812 18.1715C33.3372 17.8995 33.1372 17.6835 32.8812 17.5235C32.6412 17.3635 32.3212 17.2835 31.9212 17.2835H29.8332C29.6412 17.2835 29.4412 17.2915 29.2332 17.3075C29.0412 17.3075 28.8572 17.3315 28.6812 17.3795C28.5372 17.4275 28.4332 17.5395 28.3692 17.7155C28.3212 17.8755 28.2972 18.1075 28.2972 18.4115V23.2595C28.2972 23.3715 28.3132 23.4435 28.3452 23.4755C28.3932 23.5075 28.4732 23.5235 28.5852 23.5235H31.3212C31.8012 23.5235 32.0972 23.4835 32.2092 23.4035C32.3372 23.3075 32.4492 23.1555 32.5452 22.9475C32.5932 22.8035 32.6492 22.6115 32.7132 22.3715C32.7772 22.1315 32.8492 21.8195 32.9292 21.4355C32.9452 21.2915 32.9852 21.2035 33.0492 21.1715C33.1292 21.1235 33.2572 21.1075 33.4332 21.1235C33.6092 21.1555 33.7132 21.2035 33.7452 21.2675C33.7932 21.3315 33.8172 21.4355 33.8172 21.5795C33.7692 22.0595 33.7372 22.5635 33.7212 23.0915C33.7052 23.6035 33.6972 24.0035 33.6972 24.2915C33.6972 24.5155 33.7052 24.9155 33.7212 25.4915C33.7372 26.0515 33.7692 26.5715 33.8172 27.0515C33.8172 27.1955 33.7932 27.3075 33.7452 27.3875C33.7132 27.4515 33.6092 27.4915 33.4332 27.5075C33.2572 27.5395 33.1292 27.5315 33.0492 27.4835C32.9852 27.4195 32.9452 27.3075 32.9292 27.1475C32.8652 26.8115 32.7932 26.4915 32.7132 26.1875C32.6492 25.8675 32.5692 25.5875 32.4732 25.3475C32.4092 25.1555 32.3132 25.0195 32.1852 24.9395C32.0572 24.8435 31.7532 24.7955 31.2732 24.7955H28.5852C28.4732 24.7955 28.3932 24.8115 28.3452 24.8435C28.3132 24.8755 28.2972 24.9395 28.2972 25.0355V31.0835C28.2972 31.4035 28.3212 31.6435 28.3692 31.8035C28.4172 31.9635 28.5132 32.0595 28.6572 32.0915C28.8332 32.1395 29.0252 32.1715 29.2332 32.1875C29.4412 32.1875 29.6412 32.1875 29.8332 32.1875H32.9292C33.3292 32.1875 33.6572 32.1075 33.9132 31.9475C34.1692 31.7875 34.3772 31.5635 34.5372 31.2755C34.7132 30.9395 34.8812 30.5715 35.0412 30.1715C35.2012 29.7715 35.3532 29.3795 35.4972 28.9955C35.5612 28.8195 35.6252 28.7235 35.6892 28.7075C35.7692 28.6755 35.8892 28.6755 36.0492 28.7075C36.1452 28.7395 36.2092 28.7715 36.2412 28.8035C36.2892 28.8355 36.3212 28.8755 36.3372 28.9235C36.3532 28.9715 36.3532 29.0275 36.3372 29.0915C36.3372 29.1395 36.3372 29.1955 36.3372 29.2595C36.2412 29.9155 36.1212 30.6035 35.9772 31.3235C35.8332 32.0275 35.6812 32.6915 35.5212 33.3155C35.4732 33.4435 35.4252 33.5155 35.3772 33.5315C35.3292 33.5635 35.2572 33.5795 35.1612 33.5795C35.0172 33.5795 34.7052 33.5795 34.2252 33.5795C33.7612 33.5795 33.2492 33.5715 32.6892 33.5555C32.1132 33.5395 31.5532 33.5235 31.0092 33.5075C30.4652 33.5075 30.0412 33.5075 29.7372 33.5075C29.3852 33.5075 28.9052 33.5075 28.2972 33.5075C27.7052 33.5235 27.1212 33.5395 26.5452 33.5555C25.9532 33.5715 25.4252 33.5795 24.9612 33.5795C24.4972 33.5795 24.2332 33.5795 24.1692 33.5795C24.0732 33.5795 23.9852 33.5795 23.9052 33.5795C23.8252 33.5795 23.7532 33.5715 23.6892 33.5555C23.6252 33.5235 23.5772 33.4755 23.5452 33.4115C23.5132 33.3635 23.4972 33.2755 23.4972 33.1475C23.4972 33.0515 23.5052 32.9715 23.5212 32.9075C23.5532 32.8435 23.5932 32.7955 23.6412 32.7635C23.6892 32.7475 23.7452 32.7315 23.8092 32.7155C23.8892 32.6995 23.9852 32.6835 24.0972 32.6675C24.3372 32.6515 24.5612 32.6195 24.7692 32.5715C24.9772 32.5235 25.1852 32.4515 25.3932 32.3555C25.5532 32.2915 25.6652 32.1715 25.7292 31.9955C25.8092 31.8035 25.8492 31.5875 25.8492 31.3475V18.0755C25.8492 17.8035 25.8092 17.5795 25.7292 17.4035C25.6652 17.2275 25.5532 17.1075 25.3932 17.0435C25.2812 17.0115 25.1692 16.9875 25.0572 16.9715C24.9452 16.9395 24.8332 16.9155 24.7212 16.8995C24.5932 16.8835 24.4652 16.8675 24.3372 16.8515C24.2252 16.8355 24.1132 16.8195 24.0012 16.8035C23.7932 16.8035 23.6412 16.7795 23.5452 16.7315C23.4652 16.6835 23.4252 16.5395 23.4252 16.2995C23.4252 16.1875 23.4412 16.1075 23.4732 16.0595C23.5052 15.9955 23.5452 15.9555 23.5932 15.9395C23.6572 15.9075 23.7292 15.8915 23.8092 15.8915C23.8892 15.8915 23.9772 15.8915 24.0732 15.8915C24.1372 15.8915 24.3932 15.8995 24.8412 15.9155C25.3052 15.9155 25.8252 15.9235 26.4012 15.9395C26.9772 15.9555 27.5452 15.9635 28.1052 15.9635C28.6812 15.9635 29.1372 15.9635 29.4732 15.9635C29.7772 15.9635 30.1852 15.9635 30.6972 15.9635C31.2092 15.9635 31.7132 15.9555 32.2092 15.9395C32.7052 15.9235 33.1372 15.9155 33.5052 15.9155C33.8732 15.8995 34.0732 15.8915 34.1052 15.8915C34.2172 15.8915 34.3052 15.9075 34.3692 15.9395C34.4492 15.9715 34.5052 16.0595 34.5372 16.2035C34.6332 16.7955 34.7292 17.3635 34.8252 17.9075C34.9212 18.4515 35.0172 19.0035 35.1132 19.5635C35.1292 19.7075 35.1212 19.8275 35.0892 19.9235C35.0572 20.0035 34.9692 20.0595 34.8252 20.0915Z" fill="black"/>
</svg>
